# xmcd
#
# Track frame offsets:
#	150
#	16259
#	33000
#	48150
#	68047
#	89287
#	107944
#	124191
#	142509
#	157659
#	174514
#	199627
#	212998
#
# Disc length: 3118 seconds
#
# Revision: 0
# Processed by: cddbd v1.4PL0 Copyright (c) Steve Scherf et al.
# Submitted via: EasyCDDAExtractor 4.6.9.1
#
DISCID=9d0c2c0d
DTITLE=Blues Channel - The Blues Channel
DYEAR=1997
DGENRE=Blues
TTITLE0=Let The Good Times Roll
TTITLE1=Scratch My Back
TTITLE2=Penthouse Pauper
TTITLE3=Tonight, I Won't Be Singing No Blues
TTITLE4=Whisper Your Name
TTITLE5=Don't Take Advantage
TTITLE6=Budgie
TTITLE7=Get Off To The City
TTITLE8=I Want To Be Loved
TTITLE9=Tell It Like It Is
TTITLE10=I Been Down
TTITLE11=You Got Me Floating
TTITLE12=Untitled
EXTD=
EXTT0=
EXTT1=
EXTT2=
EXTT3=
EXTT4=
EXTT5=
EXTT6=
EXTT7=
EXTT8=
EXTT9=
EXTT10=
EXTT11=
EXTT12=
PLAYORDER=
